<svg width="20" height="20" viewBox="0 0 20 20" fill="none" xmlns="http://www.w3.org/2000/svg">
<path d="M1.70833 1.59961C1.52047 1.59961 1.3403 1.67424 1.20747 1.80708C1.07463 1.93991 1 2.12008 1 2.30794L1 9.39128C1 9.57914 1.07463 9.7593 1.20747 9.89214C1.3403 10.025 1.52047 10.0996 1.70833 10.0996H8.79167C8.97953 10.0996 9.1597 10.025 9.29253 9.89214C9.42537 9.7593 9.5 9.57914 9.5 9.39128V2.30794C9.5 2.12008 9.42537 1.93991 9.29253 1.80708C9.1597 1.67424 8.97953 1.59961 8.79167 1.59961H1.70833ZM5.31835 3.54753H6.20342L6.90006 4.56469L7.67746 3.54753H8.5565L7.28894 5.17386L8.67373 6.87846H7.73944L6.89121 5.7933L6.12975 6.87846H5.21635L6.48392 5.17386L5.31835 3.54753ZM3.53158 3.54894C3.99908 3.56075 4.38867 3.7226 4.70033 4.03451C5.01153 4.34641 5.17326 4.738 5.18554 5.20928C5.17326 5.68079 5.01153 6.07368 4.70033 6.38794C4.38867 6.70197 3.99908 6.86489 3.53158 6.87669H2.53921V8.21119H1.88542V5.20928C1.89699 4.73823 2.05742 4.34664 2.36673 4.03451C2.67603 3.7226 3.06444 3.56087 3.53194 3.5493L3.53158 3.54894ZM3.53158 4.20911C3.24919 4.21619 3.01485 4.31335 2.82856 4.50059C2.64274 4.68806 2.54629 4.92417 2.53921 5.20892V6.21723H3.53158C3.81775 6.21062 4.05422 6.11311 4.24098 5.92469C4.42774 5.73604 4.52455 5.49757 4.5314 5.20928C4.52455 4.92453 4.42774 4.68841 4.24098 4.50094C4.05445 4.31323 3.81799 4.21596 3.53158 4.20911Z" fill="currentColor" stroke="currentColor" stroke-width="0.075"/>
<path d="M12.9972 5.37739V7.7385H16.3028V5.37739H18.9V10.0996H10.4V5.37739H12.9972ZM16.3028 1.59961V3.96072H12.9972V1.59961H16.3028Z" fill="currentColor" stroke="currentColor" stroke-width="0.0916667"/>
<g clip-path="url(#clip0_4636_140)">
<g style="mix-blend-mode:luminosity">
<path d="M18.8663 15.212C18.7956 14.8439 18.6985 14.6355 18.5876 14.3871C18.5168 14.2287 18.4515 14.079 18.4297 13.9808C18.3758 13.7376 18.4022 13.4329 18.4147 13.3225H17.7622L17.6523 13.4974C17.4017 13.8962 16.8539 14.7688 16.8539 14.7688C16.5504 15.2248 16.1728 15.7922 15.6287 16.0068C15.5259 16.0415 15.3086 16.1119 15.1365 15.9146C14.9725 15.7267 14.9867 15.5237 14.9874 15.5151L14.9881 15.5061L14.9885 15.5006L14.9925 15.4967L14.9992 15.4903C15.7182 14.8079 16.4044 14.0589 16.7473 13.5822C17.1422 13.0332 17.3402 12.5814 17.4948 12.2009C17.5911 11.9639 17.7913 11.3689 17.5711 10.9661C17.4791 10.7977 17.3231 10.6834 17.1321 10.6442C17.0947 10.6365 17.0588 10.6328 17.0225 10.6328C16.6172 10.6328 16.1371 11.1419 15.5545 12.1891C15.0696 13.0605 14.7249 13.809 14.5301 14.4137C14.4293 14.7265 14.363 15.123 14.363 15.123C14.3412 15.1622 13.9449 15.6193 13.5535 15.8785C13.4225 15.9652 13.2295 16.0725 12.9532 16.0725C12.7029 16.0725 12.4708 15.9194 12.4707 15.9193C12.4708 15.9193 12.8728 15.7025 13.5208 15.0662C13.871 14.7224 14.019 14.2525 13.9071 13.84C13.7315 13.1934 13.1135 13.1432 12.9282 13.1432C12.4119 13.1448 11.9921 13.4796 11.7895 13.7659C11.3011 14.4558 11.3225 15.0207 11.3957 15.4357C11.4194 15.5698 11.4627 15.702 11.5242 15.8284L11.5303 15.8409C11.5302 15.8409 10.7607 16.3798 10.2987 15.7564C10.1214 15.5172 9.84804 15.0204 9.848 15.0203L11.4586 13.3227H10.593C10.0424 13.8931 9.52793 14.432 9.52782 14.4321C9.52779 14.432 9.14857 13.7054 8.96871 13.3225H8.26942C8.33066 13.4433 8.39234 13.568 8.45969 13.7042C8.68174 14.153 9.07283 14.909 9.07287 14.9091C9.07283 14.9091 8.90594 15.0834 8.90591 15.0835C8.81759 15.1752 8.54871 15.4545 8.11627 15.72C7.87469 15.868 7.62109 15.9693 7.34099 16.0295C7.12185 16.0767 6.83966 16.0819 6.66977 16.0363C6.5726 16.0103 6.3896 15.921 6.3896 15.921C6.38967 15.9209 6.89562 15.6041 7.442 15.0666C7.79186 14.7224 7.93991 14.2526 7.82835 13.8403C7.65265 13.1939 7.03465 13.1437 6.84941 13.1437C6.33323 13.1452 5.91329 13.4799 5.71054 13.7661C5.22218 14.4555 5.24357 15.0208 5.31679 15.4362C5.33832 15.5582 5.42094 15.7879 5.42094 15.7879C5.04676 15.9852 4.69212 16.103 4.25918 16.1185C4.22162 16.1199 4.06142 16.1205 4.00996 16.1178C3.99726 16.1171 3.95763 16.1118 3.95763 16.1118C3.95763 16.1118 4.04807 16.0538 4.06922 16.0394C4.60313 15.675 4.83877 15.0201 4.85499 14.4423C4.86841 13.9656 4.7558 13.5805 4.53792 13.3581C4.40113 13.2183 4.22016 13.146 4 13.1432H3.99069C3.60271 13.1432 3.1608 13.3758 2.85301 13.6649C2.78091 13.7326 2.5768 13.9622 2.5768 13.9622L2.70344 13.3224H2.03335L1 18.5411H1.67047L2.275 15.4869C2.40583 14.9124 2.60643 14.5483 2.99094 14.1861L2.99727 14.1807C3.09247 14.0999 3.20136 14.0232 3.30388 13.9646C3.4733 13.8677 3.62658 13.8186 3.75946 13.8186C3.83827 13.8186 3.90939 13.8362 3.97089 13.8708C4.18848 13.994 4.21496 14.2931 4.22921 14.4538C4.285 15.0871 3.79607 15.5164 3.74014 15.5632C3.57933 15.6978 3.41157 15.7631 3.22725 15.7631C2.98048 15.7631 2.79552 15.6756 2.69175 15.6271C2.68779 15.6463 2.6618 15.7739 2.6618 15.7739C2.63609 15.9021 2.58637 16.1599 2.58637 16.1599C2.85513 16.3899 3.39104 16.648 4.09801 16.6886C4.15535 16.6919 4.21347 16.6936 4.27076 16.6936C4.79029 16.6936 5.29935 16.5577 5.7838 16.2897L5.79296 16.2847L5.80082 16.2915C5.98477 16.4499 6.16193 16.5271 6.22016 16.5525C6.55862 16.7001 6.92704 16.691 6.96318 16.691C7.41034 16.691 7.828 16.5621 7.94533 16.5226C8.68897 16.2722 9.11082 15.8041 9.26964 15.63L9.39074 15.5023L9.46764 15.6441C9.56924 15.8322 9.6844 16.0454 9.88743 16.2776C9.97173 16.3739 10.2902 16.6884 10.8497 16.6884C11.3808 16.6884 11.9271 16.3294 11.9271 16.3294C11.9273 16.3295 12.1064 16.4704 12.2999 16.5616C12.5422 16.6757 12.8246 16.6881 12.9348 16.6881C13.4853 16.6881 13.9399 16.4832 14.4086 16.0237L14.4247 16.0079C14.4248 16.008 14.4929 16.17 14.5516 16.2545C14.8531 16.6882 15.2416 16.6896 15.3778 16.6896C15.5037 16.6896 15.7151 16.6677 15.8742 16.6063C16.5851 16.3314 17.1371 15.5667 17.4028 15.1353C17.4029 15.1353 17.6055 14.8141 17.845 14.3215L17.8984 14.2137C17.8984 14.2137 18.0261 14.5166 18.0261 14.5167C18.0996 14.695 18.1681 14.8936 18.2007 15.0226C18.2907 15.3713 18.351 15.6778 18.1758 15.8961C18.0904 16.0015 17.9144 16.1149 17.7297 16.1149C17.633 16.1149 17.5418 16.0846 17.4587 16.025C17.4272 16.0018 17.3946 15.9726 17.3613 15.938C17.2255 16.1074 17.0847 16.2621 16.9424 16.3981C17.0647 16.4867 17.3503 16.6951 17.778 16.6951C17.9082 16.6951 18.0935 16.6616 18.2146 16.6014C18.7072 16.3566 18.9884 15.8476 18.8663 15.212ZM15.2825 14.2464L15.3309 14.1259C15.512 13.6745 15.774 13.1423 16.1319 12.499C16.5457 11.755 16.8209 11.4582 16.9481 11.3475L16.9866 11.314L17.0097 11.2939L17.0111 11.3242L17.0136 11.3746C17.0205 11.5245 16.972 11.7439 16.8837 11.9615C16.7366 12.3233 16.5635 12.7177 16.2099 13.2093C16.033 13.4551 15.7441 13.7949 15.3964 14.1661L15.3072 14.2615L15.2534 14.319L15.2825 14.2464ZM6.07858 15.4168L6.06299 15.4281C6.06299 15.4281 6.04062 15.3826 6.028 15.3465C5.97704 15.2006 5.9602 14.9619 5.98557 14.7684C6.03038 14.4338 6.17916 14.2084 6.2411 14.127C6.42592 13.884 6.63775 13.7504 6.83519 13.7273C6.90383 13.7192 7.02189 13.729 7.12447 13.8274C7.22101 13.92 7.39132 14.2471 7.02406 14.6423C6.91208 14.7628 6.8125 14.8592 6.57893 15.052C6.40411 15.1971 6.13146 15.3813 6.07858 15.4168ZM12.1375 15.4229L12.1205 15.4343L12.115 15.4148L12.0958 15.3466C12.0421 15.1565 12.0279 14.9618 12.0535 14.7682C12.0977 14.4348 12.2469 14.2086 12.3089 14.1268C12.4936 13.8838 12.7046 13.742 12.903 13.7273C12.9159 13.7264 12.9295 13.7257 12.9434 13.7257C13.04 13.7257 13.1214 13.7589 13.1923 13.827C13.2888 13.92 13.4588 14.2475 13.0915 14.6423C12.9794 14.7628 12.8798 14.8593 12.6469 15.0522C12.4549 15.2111 12.1407 15.4208 12.1375 15.4229Z" fill="currentColor"/>
</g>
</g>
<defs>
<clipPath id="clip0_4636_140">
<rect width="17.8947" height="8" fill="white" transform="translate(1 10.5996)"/>
</clipPath>
</defs>
</svg>
