<svg width="180" height="180" viewBox="0 0 180 180" fill="none" xmlns="http://www.w3.org/2000/svg">
<path d="M32.1282 117.852C29.8058 117.986 28.0581 117.757 26.0786 116.296C24.0456 114.449 22.9262 112.597 22.6815 109.855C22.6708 108.829 22.7048 107.815 22.7536 106.794L22.7978 105.59C23.0573 99.198 23.4821 92.822 23.9071 86.4494L23.9674 85.5276C24.0014 85.0065 24.0351 84.4851 24.0685 83.9639C25.0275 69.19 26.0344 57.2684 28.3444 54.7218C30.0396 53.405 31.74 52.6671 34.0151 52.8613C36.4726 53.3282 38.3635 54.1821 40.0382 56.1207C41.5307 58.8921 41.8042 61.1989 41.4198 64.1569L41.3033 65.2692C41.2207 66.0454 40.1278 78.7425 40.0383 79.5173C39.8223 81.3944 39.6384 83.276 39.4585 85.1586L39.3455 86.3322C38.7547 92.701 38.491 99.1221 38.2277 105.533L38.2277 105.534L38.1985 106.244L38.1377 107.61C38.1009 108.443 38.0682 109.278 38.0395 110.112C37.8498 114.324 36.258 116.639 32.1282 117.852Z" fill="#00A3EE"/>
<path fill-rule="evenodd" clip-rule="evenodd" d="M14.7029 88.6404C12.804 87.6799 10.7035 87.445 8.96788 88.8253C7.13888 90.5751 7.13888 90.5751 6.81113 97.6649L6.77662 98.4312C6.22119 110.354 6.45467 122.244 7.60701 134.131L7.683 134.908C7.75435 135.647 7.82628 136.385 7.90227 137.124L7.97304 137.802C8.10733 139.168 8.28919 140.434 8.84316 141.717C9.81741 143.04 10.6582 143.71 12.3237 144.15C14.0494 144.217 15.3717 143.899 16.6743 142.798C18.1094 140.919 17.9336 139.015 17.6511 136.818C15.9701 124.236 15.9532 111.577 16.4312 98.9286L16.5008 97.0983L16.5067 96.9398C16.5329 96.2354 16.559 95.5308 16.5887 94.8267L16.6113 94.2909L16.6493 93.2934C16.7259 91.5481 16.3125 89.7624 14.7029 88.6404ZM146.491 126.042C146.26 124.539 145.626 123.582 144.609 122.57C143.039 121.703 141.283 121.408 139.722 122.443C139.528 122.595 139.34 122.742 139.151 122.89L138.514 123.382C138.105 123.699 137.693 124.013 137.279 124.322L136.695 124.751C133.702 126.954 130.682 129.103 127.646 131.228C126.949 131.714 126.255 132.204 125.563 132.697C122.754 134.724 119.871 136.573 116.954 138.394C115.846 139.085 114.743 139.782 113.644 140.488C111.141 142.095 108.631 143.665 106.067 145.146C105.964 145.204 105.861 145.262 105.757 145.32C103.936 146.344 102.04 147.411 100.858 149.324C100.443 150.784 100.421 152.083 100.858 153.558C101.606 154.775 102.335 155.601 103.52 156.256C104.857 156.568 105.996 156.489 107.245 155.847L108.073 155.318L108.991 154.741C109.571 154.373 110.154 154.011 110.74 153.655C121.367 147.298 131.832 140.497 141.85 132.984L142.395 132.575C143.408 131.823 144.408 131.076 145.324 130.177C146.296 128.955 146.564 127.651 146.491 126.042ZM96.6102 158.034C96.2021 156.826 95.6794 156.013 94.6121 155.285C93.1334 154.559 91.7421 154.495 90.2639 155.193L89.7312 155.475L89.1094 155.801C79.9147 160.649 70.5941 165.184 60.8365 168.789L60.1354 169.047L58.8087 169.538C51.1198 172.302 54.31 180.621 61.3425 177.976L61.9669 177.729C62.6619 177.464 63.3563 177.197 64.0492 176.925C64.5384 176.733 65.028 176.541 65.5181 176.351C68.91 175.035 72.2757 173.675 75.5824 172.155C76.3556 171.794 77.13 171.436 77.9056 171.08C83.09 168.714 88.2586 166.245 93.2213 163.435L93.7743 163.117C94.4037 162.765 94.9319 162.416 95.5131 161.977C96.4555 160.665 96.7566 159.625 96.6102 158.034ZM93.6506 118.205C93.0192 116.964 92.3216 116.222 91.0651 115.616C89.7276 115.47 88.6841 115.48 87.5007 116.128C81.8979 119.231 76.2375 122.197 70.4511 124.941L69.8156 125.242C67.6758 126.257 65.5366 127.271 63.3705 128.227L62.8772 128.445C62.2706 128.715 55.5287 132.167 54.922 132.436C54.8 132.487 54.6789 132.538 54.5586 132.588C53.2972 133.115 52.1398 133.598 51.286 134.737C50.5775 136.032 50.4092 137.025 50.7042 138.502C51.2485 139.642 51.7674 140.501 52.8998 141.079C54.3955 141.633 55.4383 141.607 56.956 141.053L57.7497 140.703C58.2534 140.481 64.8915 137.076 65.3934 136.85L65.9857 136.583C71.3798 134.173 76.6809 131.581 81.9028 128.817C82.9981 128.233 84.0938 127.65 85.1996 127.086C85.8271 126.768 86.4542 126.449 87.0808 126.129L88.0271 125.646C88.2122 125.554 88.3975 125.462 88.5823 125.37C90.5521 124.395 92.4711 123.444 93.6506 121.489C93.9722 120.301 93.966 119.39 93.6506 118.205ZM130.901 117.898C130.467 115.769 129.348 114.455 127.619 113.09C125.019 111.981 122.624 111.804 120.076 113.112L101.594 125.131L100.492 125.732C99.6754 126.179 98.8583 126.625 98.0405 127.071L96.7302 127.784L96.315 128.01C89.586 131.68 82.8548 135.35 76.0293 138.848L75.1578 139.293C72.0001 140.907 68.8287 142.488 65.6204 144.003L64.6995 144.436C63.2501 145.118 57.6764 147.718 56.2197 148.385L55.4169 148.752L53.9102 149.449C51.6006 150.502 49.9463 151.705 48.3398 153.644C46.3153 158.047 48.4213 161.597 52.8552 163.321C55.5296 163.739 58.0988 163.537 60.4717 162.413L61.5317 161.892C62.3465 161.499 63.161 161.106 63.9752 160.712C65.2966 160.064 70.7432 157.507 72.0731 156.875C79.964 153.155 87.6528 149.08 95.3221 144.947C96.1677 144.491 97.014 144.035 97.861 143.581C99.2276 142.848 100.593 142.113 101.956 141.375L103.499 140.538L103.831 140.36C106.792 138.774 127.244 125.71 129.676 123.382C130.879 121.574 131.076 120 130.901 117.898ZM81.1212 44.3651C80.3931 44.0025 79.6628 43.6446 78.9302 43.2915C76.1136 41.9847 73.9686 41.4612 71.3645 43.4348C70.2333 44.7667 69.7568 46.0307 69.84 47.7764C70.4318 49.749 71.4172 50.9957 73.1798 52.0222C73.7011 52.2654 74.2214 52.5104 74.7409 52.7574L75.3245 53.0356C84.2399 57.2187 92.7145 62.1815 100.921 67.6625C101.192 67.8469 101.465 68.0369 101.738 68.2278C103.445 69.4186 105.208 70.6485 107.285 70.8219C109.181 70.6328 110.166 69.7868 111.401 68.3603C112.1 66.9378 112.078 65.773 111.916 64.2125C111.807 63.6705 111.73 63.288 111.57 62.9459C111.186 62.1252 110.323 61.5364 107.39 59.5353L106.732 59.0956C98.8253 53.7783 90.5903 49.0361 82.0651 44.829L81.1212 44.3651ZM132.295 37.539C130.643 36.2069 128.97 34.8589 127.066 33.9854C124.876 33.6323 123.569 33.9236 121.922 35.5248C120.921 37.0859 120.905 38.6148 121.064 40.4506C121.947 42.3516 123.351 43.4184 124.952 44.5769C125.515 44.9768 126.077 45.3792 126.638 45.784L127.49 46.3997C132.08 49.6917 136.545 53.17 140.945 56.748C142.065 57.665 152.187 65.225 153.323 66.1175L153.998 66.6261C154.696 67.1572 155.131 67.4105 155.98 67.5645C157.653 67.643 158.934 67.3286 160.202 66.0898C161.338 64.6915 161.361 63.34 161.344 61.5343C161.093 59.8827 160.352 59.0169 159.131 58.0238L158.655 57.65L157.642 56.8336C157.028 56.3463 147.425 49.1996 146.818 48.7038C143.354 45.8747 139.824 43.142 136.23 40.5085L136.209 40.4935C135.036 39.6362 133.865 38.7804 132.72 37.8805C132.578 37.767 132.437 37.653 132.295 37.539ZM19.9638 55.046C18.7282 52.5725 16.0556 51.2079 13.516 52.7648C12.4412 53.7106 11.8641 54.7874 11.5689 56.1842L11.4639 56.7446C10.3664 62.3025 9.51522 67.9179 8.78145 73.5347L8.60357 74.9125C8.51696 75.5658 8.43059 76.2192 8.34863 76.873L8.2734 77.4808C7.86088 80.5601 8.07033 83.2439 11.173 84.5545C12.6287 84.818 13.8121 84.6146 15.0513 83.778C16.3446 82.4832 16.6085 80.9348 16.8056 79.1591C16.8457 78.7707 16.8875 78.3826 16.931 77.9948L17.0028 77.356C17.5471 72.4379 18.2697 67.5711 19.1535 62.7027C19.229 62.2875 19.3106 61.8691 19.3926 61.4486C19.8037 59.3397 20.2261 57.1736 19.9638 55.046ZM36.1835 128.103C35.5352 126.223 34.5945 124.865 32.7767 123.829C29.8618 122.698 26.8414 123.028 24.6309 125.128C21.1441 129.023 21.1441 129.023 24.0634 159.707C24.0924 160.016 24.1212 160.315 24.15 160.615C24.1818 160.973 24.2104 161.33 24.239 161.687C24.4606 164.452 24.6775 167.159 26.3404 169.574C27.7935 170.885 29.0532 171.424 31.0637 171.61C33.4194 171.719 34.9626 171.022 36.7218 169.602C38.4532 167.536 38.44 165.424 38.2958 162.892C38.2153 162.121 38.1353 161.349 38.059 160.577L37.9725 159.69C37.4816 154.781 37.0663 149.879 36.8766 144.955L36.8248 143.521C36.7385 141.154 36.654 138.787 36.5906 136.42C36.5669 135.517 36.5404 134.614 36.5112 133.712L36.4692 132.436C36.4419 130.98 36.4082 129.548 36.1835 128.103ZM30.4085 11.8785C28.5433 12.8279 27.5905 14.0708 26.6915 15.7146L26.3111 16.4443C22.8685 23.0161 19.9532 29.8423 17.5325 36.7313L17.3055 37.3801C17.1953 37.6892 17.0785 38.0043 16.9602 38.3238C16.0818 40.695 15.1094 43.32 15.9832 45.7352C17.8042 49.0167 21.9028 49.7309 25.2199 48.3389C27.64 46.7476 27.64 46.7476 29.0407 42.3627C29.4379 41.0869 29.8486 39.8141 30.2726 38.5446L30.5311 37.7726C31.8581 33.7878 33.5672 29.9499 35.4999 26.148C35.9318 25.3015 36.3615 24.4542 36.7892 23.6062C37.1035 22.9806 37.4238 22.3572 37.7503 21.736C41.0588 15.4804 37.1804 10.1547 30.4085 11.8785ZM122.055 68.991C121.816 68.8508 121.557 68.7371 121.072 68.5246C118.98 68.273 117.647 68.2725 115.905 69.3194C114.668 70.1767 113.904 71.0575 113.63 72.4448C113.488 74.1723 114.054 75.399 115.329 76.7759C117.188 78.5242 118.778 80.2917 119.98 82.431C121.394 85.5771 121.881 88.9385 120.397 92.1148C119.988 92.9258 119.611 93.731 119.284 94.5696C118.93 96.6029 119.477 97.9865 120.858 99.6569C121.794 100.431 122.468 100.85 123.759 101.01C125.98 101.099 127.138 100.819 128.846 99.6042C132.241 96.4945 132.625 91.2705 132.654 87.1818C132.448 80.9953 128.913 74.6443 123.78 70.3061L123.102 69.7697C122.574 69.3482 122.328 69.1521 122.055 68.991ZM97.3467 15.361C96.2268 14.7037 95.1043 14.0656 93.9573 13.4607C90.9262 12.1341 88.0616 12.5219 86.2791 15.6487C85.6675 17.1777 85.6029 18.3501 86.0129 19.9809C86.2901 20.6836 86.481 21.1673 86.7615 21.5844C87.3814 22.5056 88.4391 23.1015 91.8335 25.0136C93.5286 25.9544 94.5527 26.5417 94.5527 26.5417C96.0137 27.3693 97.4643 28.217 98.904 29.0847L99.7123 29.5726C101.143 30.4285 102.572 31.2843 103.983 32.1763L104.949 32.7905L106.867 33.9854C109.167 35.4863 111.012 36.3677 113.766 35.8914C115.042 35.3246 115.736 34.5748 116.537 33.3987C117.269 31.8283 117.199 30.2929 116.92 28.5991C116.358 26.728 116.358 26.728 113.006 24.8187C111.678 24.0684 110.368 23.2838 109.078 22.4656C105.618 20.272 102.138 18.1164 98.5937 16.0759L97.3467 15.361ZM74.8412 6.25069L74.2236 6.05981C66.2172 3.54057 51.6762 -0.452638 43.7275 4.01829C42.5816 5.06627 42.1344 5.95603 41.8949 7.56951C41.91 9.06662 42.3544 10.2837 43.2741 11.3882C44.6623 12.6413 44.6623 12.6413 49.4939 12.4685C50.5077 12.4304 51.5213 12.4086 52.5354 12.3868L53.278 12.3715C56.496 12.2966 59.628 12.5406 62.8087 13.101L63.7111 13.2687C66.0459 13.6975 68.3242 14.2181 70.5972 14.9489C72.253 15.509 73.8011 15.9295 75.5353 16.0758C77.1232 15.5505 78.0935 14.9503 78.9302 13.3538C79.2839 11.7417 79.3215 10.953 78.9111 9.35584C77.9574 7.59265 76.5985 6.84205 74.8412 6.25069ZM118.041 103.602C117.866 102.248 117.182 101.517 116.163 100.672C114.342 99.5573 112.544 100.072 110.967 101.287C107.884 103.699 104.709 106.053 101.347 108.063L100.858 108.352L100.384 108.632C100.126 108.784 99.8632 108.933 99.5987 109.083C98.1469 109.907 96.6542 110.754 95.7999 112.219C95.3262 113.378 95.3767 114.424 95.719 115.616C96.3504 116.857 97.0479 117.599 98.3045 118.205C99.1042 118.293 99.7162 118.361 100.32 118.317C102.288 118.171 104.167 116.832 112.174 111.125L112.767 110.698C114.222 109.654 115.608 108.553 116.92 107.333C118.014 106.128 118.063 105.166 118.041 103.602ZM175.965 77.6113C175.06 75.7576 174.315 74.5281 172.11 73.426C168.425 72.631 166.167 73.6205 164.456 76.2756C164.329 77.4506 164.403 78.2895 164.885 79.409C165.303 80.1651 165.704 80.9272 166.086 81.6951C169.855 89.6279 169.763 98.625 165.469 106.396C164.496 108.136 164.078 109.29 164.456 111.183C165.308 112.35 166.11 112.886 167.523 113.631C169.287 114.124 169.991 114.53 171.792 114.161C173.497 113.505 174.454 111.971 175.232 110.634L175.712 109.758L176.262 108.792C181.37 99.1792 181.085 88.0827 176.37 78.4156L175.965 77.6113Z" fill="url(#paint0_linear_4643_156)"/>
<path fill-rule="evenodd" clip-rule="evenodd" d="M65.6346 43.5644L65.5333 44.1821C65.1434 46.4999 64.662 48.8008 64.1725 51.1013L63.8801 52.4872C63.6775 53.447 63.4745 54.4065 63.271 55.366C63.0119 56.5846 62.7544 57.8035 62.4983 59.0226C62.347 59.7404 62.1979 60.4452 62.0485 61.1512C61.9035 61.8365 61.7583 62.5228 61.6107 63.2232C61.1644 65.34 60.7098 67.455 60.1943 69.5585C59.6789 71.6619 58.6735 72.476 56.8594 73.2073C54.7843 73.5788 53.3431 73.5035 51.2969 72.7205C48.5978 71.1351 47.7592 69.562 48.3488 66.6178L48.4889 65.8737C48.6427 65.062 48.8023 64.2516 48.9623 63.4412C49.0716 62.8748 49.1806 62.3083 49.2894 61.7416C50.093 57.5977 50.9574 53.465 51.849 49.3371L52.026 48.5173C52.3472 47.0349 52.6753 45.5537 53.0134 44.0742C53.149 43.4759 53.2791 42.8767 53.4088 42.2774C53.4863 41.939 53.5643 41.6008 53.6425 41.2628L53.833 40.4098C54.3027 39.228 55.1515 38.2994 56.6974 37.7549C60.7596 36.4455 66.4883 38.5442 65.6346 43.5644ZM58.8728 79.8905C58.2611 78.5966 57.3961 77.723 55.7666 77.0218C53.9792 76.479 52.0028 76.4474 50.3686 77.1511L49.589 77.5565L48.8072 77.9496C47.398 79.01 47.1852 80.424 46.9952 81.856L46.9241 82.4871C45.9833 90.5435 45.7135 98.699 46.4381 106.819L46.519 107.632C46.6754 109.379 46.9687 110.665 48.2823 112.193C49.9511 113.261 51.301 113.58 53.4884 113.639C55.276 113.538 56.2508 112.919 57.4424 112.04C58.8053 110.344 58.8053 110.344 58.4231 106.226C57.9142 101.075 57.8838 95.9731 58.2447 90.8404C58.2876 90.2345 58.3297 89.6286 58.3712 89.0226L58.3763 88.9473C58.4581 87.7464 58.5398 86.5459 58.6378 85.3463C58.6858 84.7593 58.731 84.1722 58.7732 83.5848L58.8317 82.7508C58.9204 81.7912 59.0037 80.8551 58.8728 79.8905Z" fill="url(#paint1_linear_4643_156)"/>
<path fill-rule="evenodd" clip-rule="evenodd" d="M65.5573 19.5044L64.1206 18.8626C63.751 18.6948 63.3774 18.5173 63.0004 18.3381C60.7322 17.2603 58.3283 16.1181 55.7829 16.6102C54.2654 17.0539 53.229 18.2691 52.438 19.5262C52.0537 20.8863 51.999 21.9184 52.438 23.2684C53.5168 25.171 53.5168 25.171 60.8286 28.3159C65.4669 30.3107 70.0477 32.3861 74.5722 34.6113L75.4958 35.067C83.2429 38.8826 90.8824 42.8741 98.3968 47.0971L99.0338 47.4555C100.165 48.0867 120.821 60.2292 121.922 60.9094C122.273 61.1286 122.626 61.358 122.98 61.5874C124.957 62.8705 127 64.1972 129.421 64.2722C130.827 64.1088 131.799 63.7478 132.841 62.7974C133.968 61.5123 134.463 60.3356 134.379 58.6679C133.58 56.1557 131.914 55.0573 129.676 53.7553L128.787 53.248C125.486 51.3437 102.628 37.9768 99.285 36.1421C98.3375 35.623 97.3902 35.1039 96.4458 34.58C88.065 29.9246 79.3858 25.7836 70.6374 21.8057L69.9619 21.4987C68.4962 20.8288 67.028 20.1641 65.5573 19.5044Z" fill="url(#paint2_linear_4643_156)"/>
<path d="M49.2089 37.3483C49.2089 41.0857 46.1826 44.1155 42.4494 44.1155C38.7163 44.1155 35.6899 41.0857 35.6899 37.3483C35.6899 33.6108 38.7163 30.5811 42.4494 30.5811C46.1826 30.5811 49.2089 33.6108 49.2089 37.3483Z" fill="#01A3EE"/>
<ellipse cx="53.5353" cy="122.614" rx="5.94835" ry="5.95516" fill="#00A2EE"/>
<ellipse cx="44.8827" cy="174.315" rx="5.40759" ry="5.68447" fill="#00A2EE"/>
<path d="M146.816 76.0576C146.816 76.0576 151.377 86.1011 151.142 93.9231C150.926 101.101 147.357 110.977 147.357 110.977" stroke="url(#paint3_linear_4643_156)" stroke-width="13.9816" stroke-linecap="round"/>
<defs>
<linearGradient id="paint0_linear_4643_156" x1="6.48877" y1="89.8575" x2="183.244" y2="89.8575" gradientUnits="userSpaceOnUse">
<stop offset="0.3125" stop-color="#00A3EE"/>
<stop offset="0.591346" stop-color="#00A3FF"/>
<stop offset="1" stop-color="#003780"/>
</linearGradient>
<linearGradient id="paint1_linear_4643_156" x1="6.48877" y1="89.8575" x2="183.244" y2="89.8575" gradientUnits="userSpaceOnUse">
<stop offset="0.3125" stop-color="#00A3EE"/>
<stop offset="0.591346" stop-color="#00A3FF"/>
<stop offset="1" stop-color="#003780"/>
</linearGradient>
<linearGradient id="paint2_linear_4643_156" x1="6.48877" y1="89.8575" x2="183.244" y2="89.8575" gradientUnits="userSpaceOnUse">
<stop offset="0.3125" stop-color="#00A3EE"/>
<stop offset="0.591346" stop-color="#00A3FF"/>
<stop offset="1" stop-color="#003780"/>
</linearGradient>
<linearGradient id="paint3_linear_4643_156" x1="135.46" y1="93.3817" x2="153.575" y2="93.3817" gradientUnits="userSpaceOnUse">
<stop stop-color="#0085DB"/>
<stop offset="0.826923" stop-color="#004C98"/>
</linearGradient>
</defs>
</svg>
