<svg width="32" height="32" viewBox="0 0 32 32" fill="none" xmlns="http://www.w3.org/2000/svg">
<path d="M5.7119 20.5704C5.29903 20.5943 4.98833 20.5537 4.6364 20.2942C4.27498 19.9661 4.07599 19.6373 4.03247 19.1504C4.03058 18.9682 4.03661 18.7882 4.04529 18.6068L4.05316 18.393C4.0993 17.258 4.17481 16.1257 4.25036 14.9941L4.26109 14.8304L4.27906 14.5528C4.44955 11.9293 4.62855 9.8123 5.03922 9.3601C5.34059 9.12625 5.64289 8.99524 6.04736 9.02971C6.48425 9.11263 6.82041 9.26425 7.11814 9.6085C7.38347 10.1006 7.43208 10.5103 7.36375 11.0355L7.34304 11.233C7.32836 11.3709 7.13407 13.6256 7.11815 13.7632C7.07976 14.0965 7.04706 14.4306 7.01508 14.7649L6.99498 14.9733C6.88994 16.1042 6.84306 17.2445 6.79626 18.3828L6.79625 18.383L6.79106 18.5092L6.78026 18.7517C6.77372 18.8997 6.7679 19.0478 6.76281 19.196C6.72908 19.944 6.4461 20.3551 5.7119 20.5704Z" fill="#00A3EE"/>
<path fill-rule="evenodd" clip-rule="evenodd" d="M2.61386 15.3852C2.27627 15.2146 1.90285 15.1729 1.5943 15.418C1.26914 15.7287 1.26914 15.7287 1.21087 16.9877L1.20474 17.1238C1.10599 19.2409 1.1475 21.3524 1.35236 23.4632L1.36587 23.6012C1.37856 23.7324 1.39135 23.8635 1.40486 23.9947L1.41744 24.1152C1.44131 24.3577 1.47364 24.5825 1.57213 24.8102C1.74533 25.0452 1.89481 25.1642 2.19088 25.2423C2.49768 25.2543 2.73276 25.1978 2.96433 25.0022C3.21947 24.6685 3.18822 24.3304 3.138 23.9404C2.83914 21.7061 2.83614 19.4582 2.92112 17.2121L2.9335 16.8871L2.93454 16.8589C2.93919 16.7339 2.94384 16.6088 2.94912 16.4837L2.95314 16.3886L2.9599 16.2115C2.97351 15.9015 2.90002 15.5844 2.61386 15.3852ZM26.043 22.0268C26.0019 21.7599 25.8892 21.59 25.7084 21.4103C25.4292 21.2563 25.1171 21.204 24.8396 21.3877C24.8051 21.4147 24.7716 21.4409 24.7381 21.467L24.6248 21.5544C24.552 21.6108 24.4789 21.6664 24.4053 21.7213L24.3014 21.7976C23.7693 22.1886 23.2325 22.5704 22.6926 22.9477C22.5688 23.034 22.4454 23.1209 22.3224 23.2086C21.823 23.5684 21.3105 23.8968 20.7918 24.2202C20.595 24.3429 20.3989 24.4667 20.2034 24.592C19.7584 24.8773 19.3122 25.1563 18.8564 25.4192C18.8381 25.4295 18.8198 25.4398 18.8014 25.4501C18.4777 25.632 18.1405 25.8213 17.9303 26.1611C17.8565 26.4204 17.8527 26.6511 17.9303 26.913C18.0634 27.1291 18.193 27.2757 18.4037 27.3921C18.6413 27.4474 18.8438 27.4334 19.0659 27.3194L19.2131 27.2255L19.3763 27.123C19.4794 27.0576 19.5831 26.9933 19.6873 26.9301C21.5765 25.8013 23.4368 24.5936 25.218 23.2595L25.3149 23.1868C25.4949 23.0534 25.6727 22.9206 25.8356 22.761C26.0084 22.544 26.056 22.3126 26.043 22.0268ZM17.1752 27.7078C17.1027 27.4932 17.0098 27.3489 16.82 27.2196C16.5571 27.0907 16.3098 27.0794 16.047 27.2033L15.9523 27.2533L15.8418 27.3112C14.2071 28.1722 12.5501 28.9775 10.8154 29.6175L10.6908 29.6634L10.4549 29.7507C9.08801 30.2415 9.65516 31.7187 10.9054 31.249L11.0164 31.2051C11.14 31.158 11.2634 31.1106 11.3866 31.0623C11.4735 31.0282 11.5606 30.9942 11.6477 30.9604C12.2507 30.7267 12.8491 30.4852 13.4369 30.2152C13.5744 30.1512 13.7121 30.0876 13.8499 30.0244C14.7716 29.6043 15.6905 29.1658 16.5727 28.6669L16.6711 28.6104C16.783 28.548 16.8769 28.4859 16.9802 28.4079C17.1477 28.1749 17.2013 27.9903 17.1752 27.7078ZM16.6491 20.6351C16.5368 20.4147 16.4128 20.283 16.1894 20.1754C15.9517 20.1494 15.7661 20.1512 15.5558 20.2663C14.5597 20.8173 13.5534 21.344 12.5247 21.8313L12.4117 21.8847C12.0313 22.0649 11.651 22.245 11.2659 22.4149L11.1782 22.4536C11.0704 22.5015 9.87181 23.1144 9.76395 23.1622C9.74227 23.1713 9.72073 23.1803 9.69936 23.1892C9.47511 23.2827 9.26934 23.3685 9.11755 23.5708C8.99161 23.8007 8.96168 23.9771 9.01413 24.2394C9.11088 24.4417 9.20314 24.5944 9.40446 24.6969C9.67037 24.7954 9.85574 24.7907 10.1256 24.6923L10.2667 24.6301C10.3562 24.5908 11.5363 23.9861 11.6255 23.946L11.7308 23.8985C12.6898 23.4707 13.6322 23.0104 14.5606 22.5196C14.7553 22.4158 14.9501 22.3123 15.1467 22.2121C15.2582 22.1556 15.3697 22.099 15.4811 22.0422L15.6493 21.9565C15.6823 21.9401 15.7152 21.9238 15.748 21.9075C16.0982 21.7343 16.4394 21.5655 16.6491 21.2183C16.7063 21.0074 16.7052 20.8456 16.6491 20.6351ZM23.2714 20.5805C23.1942 20.2025 22.9953 19.9693 22.6879 19.7269C22.2258 19.5299 21.7999 19.4984 21.3469 19.7307L18.0613 21.865L17.8653 21.9717C17.7202 22.0511 17.5749 22.1303 17.4295 22.2094L17.1966 22.3361L17.1228 22.3763C15.9265 23.0279 14.7298 23.6797 13.5164 24.3008L13.3614 24.3798C12.8001 24.6664 12.2363 24.9472 11.6659 25.2162L11.5022 25.2931C11.2445 25.4142 10.2536 25.876 9.99467 25.9944L9.85195 26.0596L9.58408 26.1832C9.17349 26.3702 8.87939 26.5838 8.59378 26.9282C8.23386 27.71 8.60827 28.3404 9.39653 28.6467C9.87198 28.7208 10.3287 28.6849 10.7506 28.4853L10.939 28.3929C11.0839 28.3231 11.2287 28.2533 11.3734 28.1834C11.6083 28.0682 12.5766 27.6141 12.8131 27.5019C14.2159 26.8413 15.5828 26.1177 16.9462 25.3838C17.0966 25.3028 17.247 25.222 17.3976 25.1412C17.6406 25.0112 17.8832 24.8806 18.1256 24.7495L18.3999 24.601L18.4589 24.5694C18.9854 24.2876 22.6212 21.9678 23.0537 21.5544C23.2675 21.2334 23.3025 20.9539 23.2714 20.5805ZM14.4216 7.52299C14.2922 7.4586 14.1623 7.39505 14.0321 7.33234C13.5314 7.10028 13.15 7.00733 12.6871 7.35779C12.486 7.59431 12.4013 7.81877 12.4161 8.12875C12.5213 8.47904 12.6965 8.70042 13.0098 8.88269C13.1025 8.92588 13.195 8.9694 13.2873 9.01326L13.3911 9.06266C14.9761 9.80548 16.4827 10.6867 17.9415 11.66C17.9898 11.6928 18.0382 11.7265 18.0869 11.7604C18.3903 11.9719 18.7037 12.1903 19.073 12.2211C19.4101 12.1875 19.5851 12.0373 19.8048 11.7839C19.9291 11.5313 19.9251 11.3245 19.8962 11.0474C19.8769 10.9512 19.8632 10.8832 19.8347 10.8225C19.7664 10.6767 19.613 10.5722 19.0916 10.2168L18.9747 10.1388C17.569 9.19455 16.105 8.35244 14.5894 7.60537L14.4216 7.52299ZM23.5193 6.31084C23.2255 6.0743 22.9281 5.83492 22.5897 5.67982C22.2002 5.61712 21.968 5.66883 21.6751 5.95317C21.4972 6.23039 21.4943 6.50188 21.5227 6.82787C21.6796 7.16545 21.9292 7.35488 22.2137 7.5606C22.3139 7.63162 22.4138 7.70307 22.5135 7.77496L22.6651 7.88429C23.4811 8.46887 24.2748 9.08652 25.0571 9.72188C25.2562 9.88472 27.0555 11.2272 27.2576 11.3857L27.3775 11.476C27.5017 11.5703 27.5789 11.6153 27.7298 11.6426C28.0273 11.6566 28.255 11.6007 28.4804 11.3808C28.6825 11.1325 28.6865 10.8925 28.6834 10.5718C28.6389 10.2785 28.5072 10.1248 28.29 9.94843L28.2055 9.88207L28.0253 9.73708C27.9163 9.65055 26.209 8.38147 26.101 8.29344C25.4853 7.79106 24.8577 7.3058 24.2188 6.83815L24.2151 6.8355C24.0066 6.68326 23.7984 6.53129 23.5947 6.37149C23.5696 6.35133 23.5445 6.33109 23.5193 6.31084ZM3.54913 9.41966C3.32947 8.98042 2.85434 8.7381 2.40286 9.01457C2.21179 9.18253 2.10919 9.37374 2.0567 9.62177L2.03804 9.72128C1.84292 10.7082 1.6916 11.7054 1.56115 12.7028L1.52953 12.9475C1.51413 13.0635 1.49878 13.1795 1.48421 13.2956L1.47083 13.4035C1.3975 13.9503 1.43473 14.4269 1.98633 14.6596C2.24511 14.7064 2.45549 14.6703 2.6758 14.5217C2.90571 14.2918 2.95264 14.0169 2.98767 13.7015C2.99481 13.6326 3.00224 13.5637 3.00996 13.4948L3.02274 13.3814C3.1195 12.508 3.24797 11.6438 3.40507 10.7793C3.41851 10.7056 3.43301 10.6313 3.44759 10.5566C3.52068 10.1821 3.59576 9.79746 3.54913 9.41966ZM6.43266 22.3928C6.3174 22.059 6.15017 21.8177 5.82699 21.6338C5.3088 21.4329 4.77182 21.4915 4.37885 21.8645C3.75897 22.5562 3.75897 22.5562 4.27796 28.0048C4.28311 28.0596 4.28823 28.1129 4.29335 28.1661C4.29901 28.2297 4.3041 28.2931 4.30918 28.3564C4.34857 28.8475 4.38712 29.3282 4.68276 29.7571C4.94109 29.9899 5.16505 30.0855 5.52246 30.1186C5.94126 30.1379 6.2156 30.0141 6.52836 29.7619C6.83616 29.395 6.8338 29.02 6.80818 28.5705C6.79387 28.4334 6.77964 28.2964 6.76608 28.1593L6.75069 28.0018C6.66343 27.1302 6.5896 26.2597 6.55587 25.3852L6.54666 25.1305C6.53133 24.7103 6.51629 24.29 6.50503 23.8697C6.50081 23.7093 6.4961 23.549 6.4909 23.3887L6.48344 23.1622C6.47859 22.9036 6.4726 22.6493 6.43266 22.3928ZM5.40599 1.75418C5.07439 1.92276 4.90501 2.14348 4.74519 2.43537L4.67754 2.56496C4.06554 3.73194 3.54726 4.94411 3.1169 6.16742L3.07654 6.28262C3.05695 6.33752 3.0362 6.39347 3.01516 6.45021C2.85901 6.87128 2.68614 7.33741 2.84147 7.76629C3.16521 8.349 3.89385 8.47583 4.48356 8.22864C4.91379 7.94607 4.91379 7.94606 5.16281 7.16742C5.23343 6.94086 5.30644 6.71485 5.38183 6.48942L5.42778 6.35232C5.66369 5.64472 5.96753 4.96322 6.31113 4.28808C6.3879 4.13776 6.4643 3.98731 6.54034 3.83673C6.5962 3.72563 6.65316 3.61493 6.7112 3.50463C7.29937 2.39378 6.60988 1.44807 5.40599 1.75418ZM21.6987 11.8959C21.6563 11.871 21.6103 11.8509 21.5241 11.8131C21.1522 11.7684 20.9152 11.7684 20.6054 11.9543C20.3856 12.1065 20.2497 12.2629 20.201 12.5093C20.1757 12.816 20.2764 13.0338 20.5029 13.2783C20.8336 13.5888 21.1161 13.9027 21.3299 14.2826C21.5812 14.8412 21.6679 15.4381 21.4041 16.0021C21.3313 16.1462 21.2643 16.2891 21.2061 16.4381C21.1431 16.7991 21.2404 17.0448 21.486 17.3414C21.6523 17.4788 21.7721 17.5534 22.0018 17.5817C22.3965 17.5975 22.6024 17.5478 22.9061 17.3321C23.5097 16.7799 23.5779 15.8522 23.5831 15.1262C23.5464 14.0276 22.9179 12.8998 22.0054 12.1295L21.885 12.0342C21.7911 11.9594 21.7473 11.9245 21.6987 11.8959ZM17.3062 2.37257C17.1071 2.25585 16.9075 2.14255 16.7036 2.03513C16.1647 1.79957 15.6555 1.86844 15.3386 2.42367C15.2299 2.69519 15.2184 2.90338 15.2913 3.19297C15.3405 3.31775 15.3745 3.40364 15.4243 3.4777C15.5345 3.64129 15.7226 3.7471 16.326 4.08665C16.6274 4.25371 16.8095 4.35799 16.8095 4.35799C17.0692 4.50496 17.3271 4.6555 17.583 4.80957L17.7267 4.89621C17.981 5.04819 18.2352 5.20017 18.4859 5.35856L18.6577 5.46763L18.9987 5.67982C19.4075 5.94634 19.7356 6.10285 20.2252 6.01827C20.452 5.91762 20.5754 5.78448 20.7178 5.57564C20.8479 5.29676 20.8354 5.02412 20.7859 4.72334C20.686 4.39107 20.686 4.39107 20.09 4.05204C19.854 3.9188 19.6211 3.77947 19.3917 3.63419C18.7765 3.24465 18.1579 2.86188 17.5279 2.49954L17.3062 2.37257ZM13.3052 0.754817L13.1954 0.720921C11.772 0.273568 9.18693 -0.435528 7.77382 0.358398C7.57009 0.544493 7.49059 0.702492 7.44801 0.989007C7.4507 1.25486 7.52971 1.47098 7.69322 1.66711C7.94001 1.88963 7.94001 1.88963 8.79896 1.85894C8.9792 1.85217 9.15938 1.84831 9.33968 1.84444L9.47169 1.84172C10.0438 1.82843 10.6006 1.87175 11.166 1.97126L11.3265 2.00105C11.7416 2.07718 12.1466 2.16962 12.5507 2.29941C12.845 2.39886 13.1203 2.47354 13.4286 2.49952C13.7109 2.40623 13.8834 2.29965 14.0321 2.01616C14.095 1.72988 14.1017 1.58983 14.0287 1.30621C13.8592 0.993115 13.6176 0.859828 13.3052 0.754817ZM20.9852 18.042C20.954 17.8016 20.8324 17.6718 20.6512 17.5217C20.3275 17.3238 20.008 17.4152 19.7276 17.6309C19.1795 18.0592 18.6149 18.4772 18.0174 18.8342L17.9303 18.8855L17.8461 18.9352C17.8003 18.9622 17.7535 18.9887 17.7065 19.0153C17.4484 19.1616 17.183 19.312 17.0312 19.5721C16.947 19.778 16.9559 19.9637 17.0168 20.1754C17.129 20.3957 17.2531 20.5275 17.4764 20.6351C17.6186 20.6508 17.7274 20.6629 17.8347 20.655C18.1845 20.6292 18.5187 20.3912 19.9421 19.3779L20.0476 19.3021C20.3063 19.1167 20.5526 18.9213 20.7859 18.7045C20.9804 18.4906 20.9891 18.3197 20.9852 18.042ZM31.2829 13.4267C31.122 13.0975 30.9895 12.8792 30.5975 12.6835C29.9424 12.5423 29.5409 12.718 29.2368 13.1895C29.2143 13.3982 29.2274 13.5471 29.313 13.7459C29.3874 13.8802 29.4586 14.0155 29.5266 14.1519C30.1966 15.5605 30.1802 17.1582 29.4169 18.5382C29.244 18.8471 29.1695 19.052 29.2368 19.3881C29.3883 19.5953 29.5307 19.6906 29.7821 19.823C30.0956 19.9105 30.2207 19.9825 30.5409 19.9169C30.844 19.8006 31.0143 19.528 31.1525 19.2907L31.2378 19.1351L31.3357 18.9637C32.2436 17.2566 32.1931 15.2862 31.3548 13.5695L31.2829 13.4267Z" fill="url(#paint0_linear_4643_146)"/>
<path fill-rule="evenodd" clip-rule="evenodd" d="M11.6684 7.38081L11.6504 7.49049C11.5811 7.90207 11.4955 8.31067 11.4085 8.71917L11.3565 8.96528C11.3205 9.1357 11.2844 9.3061 11.2482 9.47647C11.2022 9.69288 11.1564 9.90932 11.1109 10.1258C11.084 10.2533 11.0575 10.3784 11.0309 10.5038C11.0051 10.6255 10.9793 10.7474 10.9531 10.8717C10.8737 11.2476 10.7929 11.6232 10.7013 11.9967C10.6096 12.3702 10.4309 12.5148 10.1084 12.6447C9.73948 12.7106 9.48326 12.6973 9.1195 12.5582C8.63965 12.2767 8.49056 11.9973 8.59539 11.4745L8.62029 11.3424C8.64763 11.1983 8.67601 11.0543 8.70445 10.9104C8.72388 10.8099 8.74327 10.7093 8.76261 10.6086C8.90546 9.87277 9.05914 9.13891 9.21765 8.4059L9.24911 8.26033C9.30621 7.99707 9.36455 7.73406 9.42465 7.47133C9.44876 7.36508 9.47188 7.25868 9.49494 7.15227C9.50873 7.09219 9.52258 7.03213 9.5365 6.97209L9.57036 6.82062C9.65386 6.61077 9.80476 6.44587 10.0796 6.34918C10.8018 6.11667 11.8202 6.48934 11.6684 7.38081ZM10.4663 13.8314C10.3576 13.6017 10.2038 13.4465 9.91411 13.322C9.59635 13.2256 9.24499 13.22 8.95446 13.345L8.81586 13.417L8.67688 13.4868C8.42636 13.6751 8.38852 13.9262 8.35473 14.1804L8.34211 14.2925C8.17486 15.7231 8.12688 17.1714 8.2557 18.6132L8.27008 18.7576C8.29789 19.0678 8.35003 19.2961 8.58357 19.5675C8.88024 19.7572 9.12021 19.8139 9.50909 19.8242C9.82688 19.8063 10.0002 19.6965 10.212 19.5404C10.4543 19.2392 10.4543 19.2392 10.3864 18.508C10.2959 17.5932 10.2905 16.6873 10.3547 15.7758C10.3623 15.6683 10.3698 15.5607 10.3771 15.4531L10.3781 15.4397C10.3926 15.2264 10.4071 15.0133 10.4245 14.8002C10.4331 14.696 10.4411 14.5917 10.4486 14.4874L10.459 14.3393C10.4748 14.1689 10.4896 14.0027 10.4663 13.8314Z" fill="url(#paint1_linear_4643_146)"/>
<path fill-rule="evenodd" clip-rule="evenodd" d="M11.6547 3.10835L11.3993 2.99438C11.3336 2.96458 11.2672 2.93306 11.2001 2.90124C10.7969 2.70985 10.3695 2.50702 9.91701 2.59441C9.64723 2.67319 9.46299 2.88899 9.32236 3.11223C9.25404 3.35374 9.24431 3.53701 9.32236 3.77675C9.51414 4.11459 9.51414 4.11459 10.814 4.67305C11.6386 5.02728 12.453 5.39581 13.2574 5.79095L13.4215 5.87188C14.7988 6.54944 16.157 7.25823 17.4928 8.00813L17.6061 8.07176C17.8072 8.18385 21.4794 10.3401 21.6751 10.4608C21.7375 10.4998 21.8003 10.5405 21.8632 10.5812C22.2146 10.8091 22.578 11.0447 23.0083 11.058C23.2582 11.029 23.431 10.9649 23.6164 10.7961C23.8166 10.5679 23.9046 10.359 23.8897 10.0628C23.7477 9.61671 23.4514 9.42166 23.0537 9.19046L22.8956 9.10037C22.3088 8.76221 18.2451 6.38859 17.6508 6.0628C17.4823 5.97061 17.3139 5.87843 17.146 5.7854C15.6561 4.95872 14.1131 4.22338 12.5578 3.517L12.4377 3.46248C12.1772 3.34353 11.9161 3.22549 11.6547 3.10835Z" fill="url(#paint2_linear_4643_146)"/>
<path d="M8.74835 6.27689C8.74835 6.94056 8.21034 7.47858 7.54666 7.47858C6.88299 7.47858 6.34497 6.94056 6.34497 6.27689C6.34497 5.61321 6.88299 5.0752 7.54666 5.0752C8.21034 5.0752 8.74835 5.61321 8.74835 6.27689Z" fill="#01A3EE"/>
<circle cx="9.51769" cy="21.4188" r="1.05749" fill="#00A2EE"/>
<ellipse cx="7.97942" cy="30.5973" rx="0.961354" ry="1.00942" fill="#00A2EE"/>
<path d="M26.1008 13.1514C26.1008 13.1514 26.9117 14.9348 26.8699 16.3238C26.8316 17.5985 26.197 19.3521 26.197 19.3521" stroke="url(#paint3_linear_4643_146)" stroke-width="2.45148" stroke-linecap="round"/>
<defs>
<linearGradient id="paint0_linear_4643_146" x1="1.15356" y1="15.6013" x2="32.5769" y2="15.6013" gradientUnits="userSpaceOnUse">
<stop offset="0.3125" stop-color="#00A3EE"/>
<stop offset="0.591346" stop-color="#00A3FF"/>
<stop offset="1" stop-color="#003780"/>
</linearGradient>
<linearGradient id="paint1_linear_4643_146" x1="1.15356" y1="15.6013" x2="32.5769" y2="15.6013" gradientUnits="userSpaceOnUse">
<stop offset="0.3125" stop-color="#00A3EE"/>
<stop offset="0.591346" stop-color="#00A3FF"/>
<stop offset="1" stop-color="#003780"/>
</linearGradient>
<linearGradient id="paint2_linear_4643_146" x1="1.15356" y1="15.6013" x2="32.5769" y2="15.6013" gradientUnits="userSpaceOnUse">
<stop offset="0.3125" stop-color="#00A3EE"/>
<stop offset="0.591346" stop-color="#00A3FF"/>
<stop offset="1" stop-color="#003780"/>
</linearGradient>
<linearGradient id="paint3_linear_4643_146" x1="24.082" y1="16.2277" x2="27.3025" y2="16.2277" gradientUnits="userSpaceOnUse">
<stop stop-color="#0085DB"/>
<stop offset="0.826923" stop-color="#004C98"/>
</linearGradient>
</defs>
</svg>
